<?xml version="1.0" encoding="utf-8"?>
<!-- Generator: Adobe Illustrator 24.0.1, SVG Export Plug-In . SVG Version: 6.00 Build 0)  -->
<svg version="1.1" id="Calque_1" xmlns="http://www.w3.org/2000/svg" 
xmlns:xlink="http://www.w3.org/1999/xlink" x="0px" y="0px"
	 viewBox="0 0 27 27" 
	 style="enable-background:new 0 0 27 27;" 
	 xml:space="preserve">
<path style="fill:#ffffff;" 
d="M25.18,26.11L23.13,6.57c-0.04-0.41-0.39-0.72-0.8-0.72h-3.85V4.97C18.47,2.23,16.24,0,13.5,0S8.53,2.23,8.53,4.97v0.88
	H4.67c-0.41,0-0.75,0.31-0.8,0.72L1.82,26.11c-0.02,0.23,0.05,0.45,0.2,0.62C2.17,26.91,2.39,27,2.62,27h21.76
	c0.23,0,0.44-0.09,0.6-0.26S25.2,26.34,25.18,26.11z M10.14,4.97c0-1.86,1.51-3.36,3.36-3.36s3.36,1.51,3.36,3.36v0.88h-6.73V4.97z
	 M3.51,25.39L5.39,7.46h0.95h2.18h1.61h6.73h1.61h1.17h1.97l1.88,17.93H3.51z"/>
</svg>
